<svg width="144" height="19" viewBox="0 0 144 19" fill="none" xmlns="http://www.w3.org/2000/svg">
<path d="M8.76562 18H5.13281V3.89062H0.480469V0.867188H13.418V3.89062H8.76562V18ZM19.6875 8.47266H20.8594C22.0078 8.47266 22.8555 8.28125 23.4023 7.89844C23.9492 7.51562 24.2227 6.91406 24.2227 6.09375C24.2227 5.28125 23.9414 4.70312 23.3789 4.35938C22.8242 4.01562 21.9609 3.84375 20.7891 3.84375H19.6875V8.47266ZM19.6875 11.4258V18H16.0547V0.867188H21.0469C23.375 0.867188 25.0977 1.29297 26.2148 2.14453C27.332 2.98828 27.8906 4.27344 27.8906 6C27.8906 7.00781 27.6133 7.90625 27.0586 8.69531C26.5039 9.47656 25.7188 10.0898 24.7031 10.5352L29.7422 18H25.7109L21.6211 11.4258H19.6875ZM45.8438 0.867188V11.9531C45.8438 13.2188 45.5586 14.3281 44.9883 15.2812C44.4258 16.2344 43.6094 16.9648 42.5391 17.4727C41.4688 17.9805 40.2031 18.2344 38.7422 18.2344C36.5391 18.2344 34.8281 17.6719 33.6094 16.5469C32.3906 15.4141 31.7812 13.8672 31.7812 11.9062V0.867188H35.4023V11.3555C35.4023 12.6758 35.668 13.6445 36.1992 14.2617C36.7305 14.8789 37.6094 15.1875 38.8359 15.1875C40.0234 15.1875 40.8828 14.8789 41.4141 14.2617C41.9531 13.6367 42.2227 12.6602 42.2227 11.332V0.867188H45.8438ZM60.1523 13.2422C60.1523 14.7891 59.5938 16.0078 58.4766 16.8984C57.3672 17.7891 55.8203 18.2344 53.8359 18.2344C52.0078 18.2344 50.3906 17.8906 48.9844 17.2031V13.8281C50.1406 14.3438 51.1172 14.707 51.9141 14.918C52.7188 15.1289 53.4531 15.2344 54.1172 15.2344C54.9141 15.2344 55.5234 15.082 55.9453 14.7773C56.375 14.4727 56.5898 14.0195 56.5898 13.418C56.5898 13.082 56.4961 12.7852 56.3086 12.5273C56.1211 12.2617 55.8438 12.0078 55.4766 11.7656C55.1172 11.5234 54.3789 11.1367 53.2617 10.6055C52.2148 10.1133 51.4297 9.64062 50.9062 9.1875C50.3828 8.73438 49.9648 8.20703 49.6523 7.60547C49.3398 7.00391 49.1836 6.30078 49.1836 5.49609C49.1836 3.98047 49.6953 2.78906 50.7188 1.92188C51.75 1.05469 53.1719 0.621094 54.9844 0.621094C55.875 0.621094 56.7227 0.726562 57.5273 0.9375C58.3398 1.14844 59.1875 1.44531 60.0703 1.82812L58.8984 4.65234C57.9844 4.27734 57.2266 4.01562 56.625 3.86719C56.0312 3.71875 55.4453 3.64453 54.8672 3.64453C54.1797 3.64453 53.6523 3.80469 53.2852 4.125C52.918 4.44531 52.7344 4.86328 52.7344 5.37891C52.7344 5.69922 52.8086 5.98047 52.957 6.22266C53.1055 6.45703 53.3398 6.6875 53.6602 6.91406C53.9883 7.13281 54.7578 7.53125 55.9688 8.10938C57.5703 8.875 58.668 9.64453 59.2617 10.418C59.8555 11.1836 60.1523 12.125 60.1523 13.2422ZM69.8672 18H66.2344V3.89062H61.582V0.867188H74.5195V3.89062H69.8672V18ZM87.0234 18H77.1562V0.867188H87.0234V3.84375H80.7891V7.60547H86.5898V10.582H80.7891V15H87.0234V18ZM104.824 9.26953C104.824 12.0898 104.02 14.25 102.41 15.75C100.809 17.25 98.4922 18 95.4609 18H90.6094V0.867188H95.9883C98.7852 0.867188 100.957 1.60547 102.504 3.08203C104.051 4.55859 104.824 6.62109 104.824 9.26953ZM101.051 9.36328C101.051 5.68359 99.4258 3.84375 96.1758 3.84375H94.2422V15H95.8008C99.3008 15 101.051 13.1211 101.051 9.36328ZM114.609 0.867188H119.941C122.371 0.867188 124.133 1.21484 125.227 1.91016C126.328 2.59766 126.879 3.69531 126.879 5.20312C126.879 6.22656 126.637 7.06641 126.152 7.72266C125.676 8.37891 125.039 8.77344 124.242 8.90625V9.02344C125.328 9.26562 126.109 9.71875 126.586 10.3828C127.07 11.0469 127.312 11.9297 127.312 13.0312C127.312 14.5938 126.746 15.8125 125.613 16.6875C124.488 17.5625 122.957 18 121.02 18H114.609V0.867188ZM118.242 7.65234H120.352C121.336 7.65234 122.047 7.5 122.484 7.19531C122.93 6.89062 123.152 6.38672 123.152 5.68359C123.152 5.02734 122.91 4.55859 122.426 4.27734C121.949 3.98828 121.191 3.84375 120.152 3.84375H118.242V7.65234ZM118.242 10.5352V15H120.609C121.609 15 122.348 14.8086 122.824 14.4258C123.301 14.043 123.539 13.457 123.539 12.668C123.539 11.2461 122.523 10.5352 120.492 10.5352H118.242ZM135.949 7.92188L139.523 0.867188H143.438L137.754 11.332V18H134.145V11.4492L128.461 0.867188H132.398L135.949 7.92188Z" fill="#1E1E1E"/>
</svg>
