<svg width="1920" height="1126" viewBox="0 0 1920 1126" fill="none" xmlns="http://www.w3.org/2000/svg">
<path d="M1800.72 97.25C1888.28 97.25 1918.89 67.2821 1925.55 38.9834C1929.48 22.2926 1939.35 3.97666 1956.28 1.2444C1973.18 -1.48414 1988.42 11.7857 1988.04 28.9059L1971.18 793.91C1968.79 902.458 1967.6 956.732 1945.81 998.29C1926.63 1034.86 1896.6 1064.6 1859.85 1083.43C1818.08 1104.81 1763.8 1105.49 1655.23 1106.84L238.471 1124.41C123.476 1125.84 65.9788 1126.55 22.2884 1104.49C-16.1273 1085.09 -47.2612 1053.82 -66.4892 1015.32C-88.3572 971.531 -87.3892 914.038 -85.4532 799.05L-79.8357 465.398C-78.0414 358.829 -77.1443 305.545 -56.1004 264.303C-37.5834 228.014 -8.38901 198.215 27.5129 178.958C68.3144 157.073 121.52 155.085 227.932 151.111C837.131 128.355 1695.51 97.25 1800.72 97.25Z" fill="#111827"/>
</svg>
