<svg width="1920" height="608" viewBox="0 0 1920 608" fill="none" xmlns="http://www.w3.org/2000/svg">
<path d="M115.284 97.25C27.7172 97.25 -2.88599 67.2821 -9.55249 38.9834C-13.4845 22.2926 -23.3469 3.97666 -40.2755 1.2444C-57.1812 -1.48414 -72.4211 11.7857 -72.0437 28.9059L-55.1846 793.91C-52.7925 902.458 -51.5964 956.732 -29.8053 998.29C-10.6285 1034.86 19.3987 1064.6 56.1538 1083.43C97.9194 1104.81 152.202 1105.49 260.768 1106.84L1677.53 1124.41C1792.52 1125.84 1850.02 1126.55 1893.71 1104.49C1932.13 1085.09 1963.26 1053.82 1982.49 1015.32C2004.36 971.531 2003.39 914.038 2001.45 799.05L1995.84 465.398C1994.04 358.829 1993.14 305.545 1972.1 264.303C1953.58 228.014 1924.39 198.215 1888.49 178.958C1847.69 157.073 1794.48 155.085 1688.07 151.111C1078.87 128.355 220.495 97.25 115.284 97.25Z" fill="#111827"/>
</svg>
