<svg width="409" height="5" viewBox="0 0 409 5" fill="none" xmlns="http://www.w3.org/2000/svg">
<path d="M0.65625 4.4375V0.53125H9.04688V4.4375H0.65625ZM12.375 4.4375V0.53125H20.7656V4.4375H12.375ZM24.0938 4.4375V0.53125H32.4844V4.4375H24.0938ZM35.8125 4.4375V0.53125H44.2031V4.4375H35.8125ZM130.656 4.4375V0.53125H139.047V4.4375H130.656ZM142.375 4.4375V0.53125H150.766V4.4375H142.375ZM154.094 4.4375V0.53125H162.484V4.4375H154.094ZM165.812 4.4375V0.53125H174.203V4.4375H165.812ZM177.531 4.4375V0.53125H185.922V4.4375H177.531ZM189.25 4.4375V0.53125H197.641V4.4375H189.25ZM200.969 4.4375V0.53125H209.359V4.4375H200.969ZM212.688 4.4375V0.53125H221.078V4.4375H212.688ZM224.406 4.4375V0.53125H232.797V4.4375H224.406ZM236.125 4.4375V0.53125H244.516V4.4375H236.125ZM247.844 4.4375V0.53125H256.234V4.4375H247.844ZM259.562 4.4375V0.53125H267.953V4.4375H259.562ZM271.281 4.4375V0.53125H279.672V4.4375H271.281ZM283 4.4375V0.53125H291.391V4.4375H283ZM294.719 4.4375V0.53125H303.109V4.4375H294.719ZM306.438 4.4375V0.53125H314.828V4.4375H306.438ZM318.156 4.4375V0.53125H326.547V4.4375H318.156ZM329.875 4.4375V0.53125H338.266V4.4375H329.875ZM341.594 4.4375V0.53125H349.984V4.4375H341.594ZM353.312 4.4375V0.53125H361.703V4.4375H353.312ZM365.031 4.4375V0.53125H373.422V4.4375H365.031ZM376.75 4.4375V0.53125H385.141V4.4375H376.75ZM388.469 4.4375V0.53125H396.859V4.4375H388.469ZM400.188 4.4375V0.53125H408.578V4.4375H400.188Z" fill="#833DAD" fill-opacity="0.3"/>
</svg>
